<svg xmlns="http://www.w3.org/2000/svg" viewBox="4.54688 -89.4063 159.4 89.91">
	<path d="M 86.375 -60.359375 C 87.382812 -64.234375 87.804688 -68.109375 87.640625 -71.984375 C 87.472656 -75.859375 86.421875 -79.054688 84.484375 -81.578125 C 82.546875 -84.109375 79.222656 -85.375 74.515625 -85.375 C 70.804688 -85.375 66.890625 -84.40625 62.765625 -82.46875 C 58.640625 -80.53125 54.765625 -77.960938 51.140625 -74.765625 C 47.523438 -71.566406 44.539062 -68.195312 42.1875 -64.65625 L 29.296875 -12.625 C 28.617188 -9.425781 28.785156 -6.859375 29.796875 -4.921875 C 30.804688 -2.984375 32.578125 -1.34375 35.109375 0 L 4.546875 0 C 8.753906 -1.6875 11.695312 -3.707031 13.375 -6.0625 C 15.0625 -8.414062 16.410156 -11.53125 17.421875 -15.40625 L 30.5625 -68.953125 C 31.738281 -73.671875 32.203125 -77.5 31.953125 -80.4375 C 31.703125 -83.382812 29.972656 -84.859375 26.765625 -84.859375 C 23.566406 -84.859375 20.535156 -83.132812 17.671875 -79.6875 C 14.816406 -76.238281 12.800781 -73.164062 11.625 -70.46875 L 10.859375 -70.71875 C 12.710938 -75.601562 15.488281 -79.851562 19.1875 -83.46875 C 22.894531 -87.09375 27.273438 -88.90625 32.328125 -88.90625 C 37.890625 -88.90625 41.425781 -87.050781 42.9375 -83.34375 C 44.457031 -79.644531 44.539062 -74.847656 43.1875 -68.953125 C 48.070312 -74.679688 54.007812 -79.519531 61 -83.46875 C 67.988281 -87.425781 74.847656 -89.40625 81.578125 -89.40625 C 87.472656 -89.40625 91.976562 -87.722656 95.09375 -84.359375 C 98.207031 -80.992188 99.847656 -76.53125 100.015625 -70.96875 C 104.898438 -76.1875 110.625 -80.5625 117.1875 -84.09375 C 123.757812 -87.632812 130.160156 -89.40625 136.390625 -89.40625 C 142.285156 -89.40625 146.617188 -88.097656 149.390625 -85.484375 C 152.171875 -82.878906 153.8125 -79.472656 154.3125 -75.265625 C 154.820312 -71.054688 154.65625 -66.425781 153.8125 -61.375 C 152.976562 -56.320312 151.882812 -51.269531 150.53125 -46.21875 L 144.734375 -23.234375 C 143.546875 -18.347656 142.992188 -13.800781 143.078125 -9.59375 C 143.171875 -5.382812 144.816406 -3.28125 148.015625 -3.28125 C 151.378906 -3.28125 154.445312 -5.046875 157.21875 -8.578125 C 160 -12.117188 161.984375 -15.238281 163.171875 -17.9375 L 163.921875 -17.6875 C 162.066406 -12.96875 159.367188 -8.753906 155.828125 -5.046875 C 152.296875 -1.347656 147.835938 0.5 142.453125 0.5 C 137.234375 0.5 133.78125 -1.6875 132.09375 -6.0625 C 130.414062 -10.4375 130.414062 -15.738281 132.09375 -21.96875 L 138.671875 -48.5 C 139.847656 -52.707031 140.851562 -56.957031 141.6875 -61.25 C 142.53125 -65.539062 142.828125 -69.492188 142.578125 -73.109375 C 142.328125 -76.734375 141.234375 -79.679688 139.296875 -81.953125 C 137.359375 -84.234375 134.117188 -85.375 129.578125 -85.375 C 124.859375 -85.375 119.675781 -83.6875 114.03125 -80.3125 C 108.394531 -76.945312 103.722656 -73.078125 100.015625 -68.703125 C 100.015625 -67.015625 99.847656 -65.285156 99.515625 -63.515625 C 99.179688 -61.753906 98.84375 -59.945312 98.5 -58.09375 L 87.390625 -12.875 C 85.703125 -6.8125 87.554688 -2.519531 92.953125 0 L 62.640625 0 C 66.679688 -1.6875 69.582031 -3.707031 71.34375 -6.0625 C 73.113281 -8.414062 74.421875 -11.53125 75.265625 -15.40625 Z M 86.375 -60.359375" fill="#000000"/>
	<style>
        path { fill: #000; }
        @media (prefers-color-scheme: dark) {
            path { fill: #FFF; }
        }
    </style>
</svg>